<svg height="1420" viewBox="-33 -181 1065 1065" width="1420" xmlns="http://www.w3.org/2000/svg"><path d="M829.348 65.887c-12.75-44.543-53.797-77.239-102.371-77.239-48.575 0-89.625 32.696-102.383 77.239H-2.02v58.5h626.622c12.75 44.535 53.8 77.242 102.375 77.242 48.574 0 89.62-32.707 102.375-77.242h167.066v-58.5zm0 0M185.488 233.344c-48.574 0-89.629 32.703-102.37 77.238H-2.02v58.504h85.137c12.742 44.543 53.801 77.242 102.375 77.242s89.63-32.7 102.375-77.242h708.551v-58.504h-708.55c-12.747-44.535-53.805-77.238-102.38-77.238zm0 0M513.602 478.047c-48.575 0-89.637 32.7-102.383 77.242H-2.02v58.5H411.22c12.746 44.527 53.808 77.242 102.383 77.242 48.57 0 89.628-32.715 102.37-77.242h380.446v-58.5H615.973c-12.743-44.543-53.801-77.242-102.371-77.242zm0 0"/></svg>